<?xml version="1.0" encoding="UTF-8"?>
<svg width="1514px" height="396px" viewBox="0 0 1514 396" version="1.1" xmlns="http://www.w3.org/2000/svg" xmlns:xlink="http://www.w3.org/1999/xlink">
    <!-- Generator: Sketch 44.1 (41455) - http://www.bohemiancoding.com/sketch -->
    <!-- Designer: Anatasof wirapraja - http://anatasof.xyz -->
    <title>darapsa-logotype</title>
    <desc>Created with Sketch.</desc>
    <defs></defs>
    <g id="Symbols" stroke="none" stroke-width="1" fill="none" fill-rule="evenodd">
        <g id="darapsa-logotype">
            <g id="darapsa-logo-text" transform="translate(476.000000, 102.000000)" fill="#000000">
                <path d="M86.8314176,0 C110.42847,0 129.871443,7.52912699 145.16092,22.5876068 C160.450396,37.6460867 168.095019,56.9656941 168.095019,80.5470085 L168.095019,112.474359 C168.095019,136.143993 160.450396,155.4636 145.16092,170.433761 C129.871443,185.403921 110.42847,192.888889 86.8314176,192.888889 L0,192.888889 L0,169.705128 L20.5478927,165.730769 L20.5478927,27.2905983 L0,23.3162393 L0,0 L86.8314176,0 Z M59.2574713,29.8076923 L59.2574713,163.213675 L84.8429119,163.213675 C98.7183325,163.213675 109.588722,158.53281 117.454406,149.17094 C125.32009,139.80907 129.252874,127.576999 129.252874,112.474359 L129.252874,80.2820513 C129.252874,65.3560507 125.32009,53.2122975 117.454406,43.8504274 C109.588722,34.4885572 98.7183325,29.8076923 84.8429119,29.8076923 L59.2574713,29.8076923 Z M279.318774,192.888889 C278.258232,190.504262 277.330272,188.053431 276.534866,185.536325 C275.73946,183.019218 275.12082,180.48007 274.678927,177.918803 C270.083246,183.217975 264.493392,187.501408 257.909195,190.769231 C251.324999,194.037053 243.790847,195.67094 235.306513,195.67094 C221.254336,195.67094 210.096721,191.851178 201.833333,184.211538 C193.569946,176.571899 189.438314,166.17243 189.438314,153.012821 C189.438314,139.588252 194.82932,129.210863 205.611494,121.880342 C216.393668,114.549821 232.213178,110.884615 253.070498,110.884615 L272.822989,110.884615 L272.822989,96.8418803 C272.822989,89.952957 270.834503,84.6097056 266.857471,80.8119658 C262.88044,77.014226 257.003359,75.1153846 249.226054,75.1153846 C244.80713,75.1153846 240.874347,75.6232143 237.427586,76.6388889 C233.980826,77.6545635 231.196945,78.8689388 229.075862,80.2820513 L226.557088,95.6495726 L197.392337,95.6495726 L197.524904,63.8547009 C204.595182,59.0854462 212.703786,55.0669679 221.850958,51.7991453 C230.99813,48.5313227 240.962654,46.8974359 251.744828,46.8974359 C269.508901,46.8974359 283.936471,51.2471075 295.027969,59.9465812 C306.119468,68.6460549 311.665134,81.0326832 311.665134,97.1068376 L311.665134,156.324786 C311.665134,158.532775 311.687228,160.608252 311.731418,162.551282 C311.775607,164.494312 311.930267,166.348994 312.195402,168.115385 L323.99387,169.705128 L323.99387,192.888889 L279.318774,192.888889 Z M245.77931,167.055556 C251.61229,167.055556 256.914919,165.797021 261.687356,163.279915 C266.459794,160.762808 270.171634,157.605432 272.822989,153.807692 L272.822989,131.948718 L253.070498,131.948718 C244.8513,131.948718 238.620711,133.869639 234.378544,137.711538 C230.136377,141.553438 228.015326,146.168064 228.015326,151.555556 C228.015326,156.41313 229.58402,160.210813 232.721456,162.948718 C235.858892,165.686623 240.211466,167.055556 245.77931,167.055556 Z M340.034483,169.705128 L358.59387,165.730769 L358.59387,76.8376068 L338.045977,72.8632479 L338.045977,49.5470085 L394.652107,49.5470085 L396.375479,70.4786325 C399.733861,63.059792 404.064341,57.2749495 409.36705,53.1239316 C414.669758,48.9729137 420.81197,46.8974359 427.79387,46.8974359 C429.826575,46.8974359 431.969721,47.0519928 434.223372,47.3611111 C436.477023,47.6702295 438.355037,48.0455818 439.857471,48.4871795 L435.747893,83.7264957 L419.839847,83.3290598 C414.183624,83.3290598 409.499635,84.4330374 405.787739,86.6410256 C402.075844,88.8490139 399.247775,91.9843102 397.303448,96.0470085 L397.303448,165.730769 L415.862835,169.705128 L415.862835,192.888889 L340.034483,192.888889 L340.034483,169.705128 Z M540.078161,192.888889 C539.017619,190.504262 538.089659,188.053431 537.294253,185.536325 C536.498847,183.019218 535.880207,180.48007 535.438314,177.918803 C530.842633,183.217975 525.252779,187.501408 518.668582,190.769231 C512.084386,194.037053 504.550234,195.67094 496.0659,195.67094 C482.013723,195.67094 470.856108,191.851178 462.59272,184.211538 C454.329333,176.571899 450.197701,166.17243 450.197701,153.012821 C450.197701,139.588252 455.588707,129.210863 466.370881,121.880342 C477.153055,114.549821 492.972565,110.884615 513.829885,110.884615 L533.582375,110.884615 L533.582375,96.8418803 C533.582375,89.952957 531.59389,84.6097056 527.616858,80.8119658 C523.639827,77.014226 517.762746,75.1153846 509.985441,75.1153846 C505.566517,75.1153846 501.633734,75.6232143 498.186973,76.6388889 C494.740213,77.6545635 491.956332,78.8689388 489.835249,80.2820513 L487.316475,95.6495726 L458.151724,95.6495726 L458.284291,63.8547009 C465.354569,59.0854462 473.463173,55.0669679 482.610345,51.7991453 C491.757517,48.5313227 501.722041,46.8974359 512.504215,46.8974359 C530.268288,46.8974359 544.695858,51.2471075 555.787356,59.9465812 C566.878855,68.6460549 572.424521,81.0326832 572.424521,97.1068376 L572.424521,156.324786 C572.424521,158.532775 572.446615,160.608252 572.490805,162.551282 C572.534994,164.494312 572.689654,166.348994 572.954789,168.115385 L584.753257,169.705128 L584.753257,192.888889 L540.078161,192.888889 Z M506.538697,167.055556 C512.371677,167.055556 517.674306,165.797021 522.446743,163.279915 C527.219181,160.762808 530.931021,157.605432 533.582375,153.807692 L533.582375,131.948718 L513.829885,131.948718 C505.610687,131.948718 499.380098,133.869639 495.137931,137.711538 C490.895764,141.553438 488.774713,146.168064 488.774713,151.555556 C488.774713,156.41313 490.343407,160.210813 493.480843,162.948718 C496.618279,165.686623 500.970853,167.055556 506.538697,167.055556 Z M594.96092,72.8632479 L594.96092,49.5470085 L651.169349,49.5470085 L653.025287,66.2393162 C657.267454,60.0569491 662.34914,55.2877661 668.270498,51.9316239 C674.191856,48.5754818 681.085274,46.8974359 688.950958,46.8974359 C706.715031,46.8974359 720.501867,53.830415 730.311877,67.6965812 C740.121888,81.5627474 745.02682,99.8004568 745.02682,122.410256 L745.02682,125.192308 C745.02682,146.388995 740.121888,163.434408 730.311877,176.32906 C720.501867,189.223711 706.803408,195.67094 689.216092,195.67094 C681.703922,195.67094 675.031447,194.279928 669.198467,191.497863 C663.365488,188.715798 658.372179,184.631081 654.218391,179.24359 L654.218391,220.709402 L672.910345,224.683761 L672.910345,248 L596.949425,248 L596.949425,224.683761 L615.641379,220.709402 L615.641379,76.8376068 L594.96092,72.8632479 Z M706.317241,122.410256 C706.317241,108.897368 704.063624,97.9459109 699.556322,89.5555556 C695.04902,81.1652002 688.155602,76.9700855 678.875862,76.9700855 C673.042883,76.9700855 668.071668,78.1623812 663.962069,80.5470085 C659.85247,82.9316359 656.60461,86.3318868 654.218391,90.7478632 L654.218391,153.542735 C656.60461,157.605433 659.85247,160.696571 663.962069,162.816239 C668.071668,164.935908 673.13126,165.995726 679.140996,165.995726 C688.509115,165.995726 695.380438,162.330521 699.755172,155 C704.129907,147.669479 706.317241,137.733681 706.317241,125.192308 L706.317241,122.410256 Z M879.317241,98.8290598 L853.3341,98.8290598 L849.224521,80.9444444 C846.573167,78.8247757 843.236929,77.0584116 839.215709,75.6452991 C835.194488,74.2321867 830.753536,73.525641 825.89272,73.525641 C819.087578,73.525641 813.696572,75.0491301 809.71954,78.0961538 C805.742509,81.1431776 803.754023,84.96294 803.754023,89.5555556 C803.754023,93.8832125 805.654132,97.4821794 809.454406,100.352564 C813.254681,103.222949 820.855115,105.762097 832.255939,107.970085 C850.020012,111.502867 863.188207,116.691561 871.76092,123.536325 C880.333632,130.381088 884.619923,139.809057 884.619923,151.820513 C884.619923,164.715164 879.074257,175.24711 867.982759,183.416667 C856.89126,191.586223 842.286936,195.67094 824.169349,195.67094 C813.122039,195.67094 802.980761,194.059133 793.745211,190.83547 C784.50966,187.611807 776.312679,182.997181 769.154023,176.991453 L768.756322,144.799145 L795.8,144.799145 L801.102682,163.478632 C803.400522,165.421662 806.537911,166.856833 810.514943,167.784188 C814.491974,168.711543 818.6457,169.175214 822.976245,169.175214 C830.841929,169.175214 836.829481,167.762122 840.93908,164.935897 C845.04868,162.109672 847.103448,158.267831 847.103448,153.410256 C847.103448,149.170919 845.026585,145.505713 840.872797,142.41453 C836.719009,139.323346 829.074385,136.585482 817.938697,134.200855 C801.058409,130.756393 788.310005,125.656017 779.693103,118.899573 C771.076202,112.143129 766.767816,102.935956 766.767816,91.2777778 C766.767816,79.2663217 771.716936,68.9110122 781.615326,60.2115385 C791.513715,51.5120648 805.60987,47.1623932 823.904215,47.1623932 C835.039902,47.1623932 845.578877,48.6638026 855.521456,51.6666667 C865.464034,54.6695307 873.263318,58.5113726 878.91954,63.1923077 L879.317241,98.8290598 Z M993.324904,192.888889 C992.264363,190.504262 991.336402,188.053431 990.540996,185.536325 C989.74559,183.019218 989.12695,180.48007 988.685057,177.918803 C984.089377,183.217975 978.499522,187.501408 971.915326,190.769231 C965.331129,194.037053 957.796977,195.67094 949.312644,195.67094 C935.260466,195.67094 924.102851,191.851178 915.839464,184.211538 C907.576076,176.571899 903.444444,166.17243 903.444444,153.012821 C903.444444,139.588252 908.835451,129.210863 919.617625,121.880342 C930.399798,114.549821 946.219308,110.884615 967.076628,110.884615 L986.829119,110.884615 L986.829119,96.8418803 C986.829119,89.952957 984.840633,84.6097056 980.863602,80.8119658 C976.88657,77.014226 971.00949,75.1153846 963.232184,75.1153846 C958.81326,75.1153846 954.880477,75.6232143 951.433716,76.6388889 C947.986956,77.6545635 945.203076,78.8689388 943.081992,80.2820513 L940.563218,95.6495726 L911.398467,95.6495726 L911.531034,63.8547009 C918.601312,59.0854462 926.709916,55.0669679 935.857088,51.7991453 C945.00426,48.5313227 954.968784,46.8974359 965.750958,46.8974359 C983.515031,46.8974359 997.942601,51.2471075 1009.0341,59.9465812 C1020.1256,68.6460549 1025.67126,81.0326832 1025.67126,97.1068376 L1025.67126,156.324786 C1025.67126,158.532775 1025.69336,160.608252 1025.73755,162.551282 C1025.78174,164.494312 1025.9364,166.348994 1026.20153,168.115385 L1038,169.705128 L1038,192.888889 L993.324904,192.888889 Z M959.785441,167.055556 C965.61842,167.055556 970.921049,165.797021 975.693487,163.279915 C980.465924,160.762808 984.177765,157.605432 986.829119,153.807692 L986.829119,131.948718 L967.076628,131.948718 C958.85743,131.948718 952.626841,133.869639 948.384674,137.711538 C944.142508,141.553438 942.021456,146.168064 942.021456,151.555556 C942.021456,156.41313 943.59015,160.210813 946.727586,162.948718 C949.865022,165.686623 954.217597,167.055556 959.785441,167.055556 Z" id="Darapsa"></path>
            </g>
            <path d="M198,396 C307.35238,396 396,307.35238 396,198 C396,88.6476195 307.35238,0 198,0 C88.6476195,0 0,88.6476195 0,198 C0,307.35238 88.6476195,396 198,396 Z" id="bg-circle" fill="#000"></path>
            <g id="darapsa-glyph" transform="translate(98.226563, 96.292969)" fill="#00FF00">
                <path d="M121.275666,127.601928 L45.3456957,203.531899 L36.351847,194.53805 L110.033717,120.85618 C105.149084,115.972395 102.127707,109.224458 102.127707,101.770709 C102.127707,94.3121175 105.153011,87.5602557 110.04324,82.675722 L36.3708863,9.00336839 L45.364735,0.00951966973 L121.290282,75.9350668 C123.765005,75.1868874 126.389886,74.7846747 129.108692,74.7846747 C144.00988,74.7846747 156.089678,86.8667339 156.089678,101.770709 C156.089678,116.674685 144.00988,128.756744 129.108692,128.756744 C126.384533,128.756744 123.754668,128.352946 121.275666,127.601928 Z M129.108692,115.263726 C136.559286,115.263726 142.599185,109.222697 142.599185,101.770709 C142.599185,94.3187216 136.559286,88.277692 129.108692,88.277692 C121.658099,88.277692 115.6182,94.3187216 115.6182,101.770709 C115.6182,109.222697 121.658099,115.263726 129.108692,115.263726 Z" id="Combined-Shape"></path>
                <path d="M0.37887246,176.751834 L9.3725355,185.745497 L93.2538622,101.86417 L9.38822808,17.9985359 L0.39456504,26.992199 L75.2665362,101.86417 L0.37887246,176.751834 Z" id="Combined-Shape"></path>
                <path d="M0.37887246,176.751834 L9.3725355,185.745497 L93.2538622,101.86417 L9.38822808,17.9985359 L0.39456504,26.992199 L75.2665362,101.86417 L0.37887246,176.751834 Z" id="Combined-Shape" transform="translate(46.816367, 101.872016) scale(-1, 1) translate(-46.816367, -101.872016) "></path>
                <path d="M199.798165,85.1753684 L190.804503,76.1817064 L165.361826,101.624384 L190.799743,127.062301 L199.793405,118.068639 L183.34915,101.624384 L199.798165,85.1753684 Z" id="Combined-Shape"></path>
            </g>
        </g>
    </g>
</svg>